<svg xmlns="http://www.w3.org/2000/svg" width="361.485" height="78.003" viewBox="0 0 361.485 78.003"><path d="M286.035,78l41.179-12.457c.022,0,.043-.022.065-.022a2.557,2.557,0,0,0,.7-.355.045.045,0,0,0,.043-.043,2.328,2.328,0,0,0,.521-.51c.023-.022.043-.043.088-.089a3.155,3.155,0,0,0,.325-.664.321.321,0,0,0,.043-.157,2.281,2.281,0,0,0,.131-.774V25.7h32.359L344.371,50.255a2.85,2.85,0,0,0,0,3.19L361.485,78ZM0,78,17.091,53.445a2.77,2.77,0,0,0,0-3.19L0,25.7H32.338V62.933a3.029,3.029,0,0,0,.129.774.575.575,0,0,1,.045.157,2.391,2.391,0,0,0,.347.664.286.286,0,0,0,.088.089,2.216,2.216,0,0,0,.5.51.1.1,0,0,0,.065.043,2.444,2.444,0,0,0,.672.355c.045,0,.066.022.088.022L75.45,78ZM269.16,65.657h38.789L269.16,77.382Zm-215.624,0h38.79V77.382ZM37.7,60.182V0H323.76V60.182Z" transform="translate(0 0)" fill="#569007" opacity="0.902"/></svg>